<?xml version="1.0" encoding="utf-8"?>
<!-- Generator: Adobe Illustrator 22.0.1, SVG Export Plug-In . SVG Version: 6.00 Build 0)  -->
<svg version="1.1" id="Layer_1" xmlns="http://www.w3.org/2000/svg" xmlns:xlink="http://www.w3.org/1999/xlink" x="0px" y="0px"
	 viewBox="0 0 496 224" style="enable-background:new 0 0 496 224;" xml:space="preserve">
<style type="text/css">
	.st0{fill:url(#SVGID_1_);}
	.st1{fill:none;stroke:#9B7C2D;}
	.st2{fill:url(#SVGID_2_);}
	.st3{fill:none;stroke:#1E582C;}
	.st4{fill:url(#SVGID_3_);}
	.st5{fill:none;stroke:#213F7D;}
	.st6{fill:none;stroke:#213F7D;stroke-width:5;stroke-linecap:round;stroke-linejoin:round;}
	.st7{enable-background:new    ;}
	.st8{fill:#42B549;}
</style>
<title>XNAT Desktop Client Logo v1</title>
<g id="Layer_1_1_">
	
		<linearGradient id="SVGID_1_" gradientUnits="userSpaceOnUse" x1="103.1482" y1="63.4598" x2="82.9882" y2="209.3997" gradientTransform="matrix(1 0 0 -1 0 226)">
		<stop  offset="0" style="stop-color:#9B7C2D"/>
		<stop  offset="0.42" style="stop-color:#F6DB03"/>
		<stop  offset="1" style="stop-color:#FFFFFF"/>
	</linearGradient>
	<path class="st0" d="M80.2,16.8c10.7-0.8,21.3-2.5,31.8-5.1c-9.8,12.1-37.4,29.4-3.4,64S115.4,156,96,171
		c31.2-56.6-2.6-71.6-17.8-90.3C63.4,62.5,49.9,37.8,58.4,17.2C58.4,17.2,63,18,80.2,16.8z"/>
	<path class="st1" d="M105.6,18.6c-11.2,11.8-25.1,28.5,3,57.1c34.1,34.6,6.8,80.3-12.6,95.3c31.2-56.6-2.6-71.6-17.8-90.3
		C63.4,62.5,49.9,37.8,58.4,17.2"/>
	
		<linearGradient id="SVGID_2_" gradientUnits="userSpaceOnUse" x1="154.8508" y1="136.6257" x2="49.0208" y2="117.0257" gradientTransform="matrix(1 0 0 -1 0 226)">
		<stop  offset="0" style="stop-color:#FFFFFF;stop-opacity:0"/>
		<stop  offset="0.58" style="stop-color:#42B549"/>
		<stop  offset="1" style="stop-color:#1E582C"/>
	</linearGradient>
	<path class="st2" d="M148.4,45.8c1.3-17.1,5.4-27.1,5.4-27.1c-54.7,18.3-79.6,51.6-81,81.8c-1.4,30,8.3,51.1,22.6,70.5
		c0.6,0.8,0-0.9,0.6-0.1c-4.6-20.7-7.3-35.9-1.9-50.9c6.2-17.1,22.5-33,53.8-46.8C147.5,64.1,147.6,54.9,148.4,45.8z"/>
	<path class="st3" d="M153.8,18.7c-54.7,18.3-79.6,51.6-81,81.8c-1.4,30,8.3,51.1,22.6,70.5c0.6,0.8,0-0.9,0.6-0.1
		c-4.6-20.7-7.3-35.9-1.9-50.9c5.5-15.2,19-29.4,43.8-42.1"/>
	
		<linearGradient id="SVGID_3_" gradientUnits="userSpaceOnUse" x1="30.2287" y1="121.5285" x2="123.6287" y2="92.8685" gradientTransform="matrix(1 0 0 -1 0 226)">
		<stop  offset="0" style="stop-color:#FFFFFF;stop-opacity:0"/>
		<stop  offset="0.48" style="stop-color:#406AB2"/>
		<stop  offset="1" style="stop-color:#23366F"/>
	</linearGradient>
	<path class="st4" d="M39.2,84.3C42.2,70.7,42,61.8,42,61.8c45.5,27.8,60.3,46.2,63.2,63c2.6,14.8-4.3,34.2-9.2,46.1
		c0-0.7-0.6,0.4-0.6-0.4c0-14.7,0.7-27.3-4.6-36.1c-8.1-13.6-24.6-22.6-56.4-34.2C34.5,100.2,36.3,97.9,39.2,84.3z"/>
	<path class="st5" d="M42,61.8c45.5,27.8,60.3,46.2,63.2,63c2.6,14.8-4.3,34.2-9.2,46.1c0-0.7-0.6,0.4-0.6-0.4
		c0-14.7,0.7-27.3-4.6-36.1c-8.1-13.6-24.6-22.6-56.4-34.2"/>
	<line class="st6" x1="136.1" y1="65.7" x2="195" y2="157"/>
	<line class="st6" x1="195" y1="65.7" x2="136.1" y2="157"/>
	<polyline class="st6" points="214.1,157 214.1,65.7 285,157 285,65.7 	"/>
	<polyline class="st6" points="297.9,157 334.4,65.7 371.2,157 	"/>
	<line class="st6" x1="307.2" y1="133.7" x2="361.8" y2="133.7"/>
	<line class="st6" x1="371.3" y1="65.7" x2="444.4" y2="65.7"/>
	<line class="st6" x1="407.9" y1="65.7" x2="407.9" y2="157"/>
	<g class="st7">
		<path class="st8" d="M134.3,205.3v-32.7c0-0.3,0.1-0.6,0.4-0.8c0.3-0.2,0.6-0.3,1-0.3h8.5c3,0,5.5,0.8,7.3,2.5
			c1.8,1.6,2.7,4.2,2.7,7.8v14.6c0,3.6-0.9,6.2-2.7,7.8c-1.8,1.6-4.3,2.5-7.3,2.5h-8.5c-0.4,0-0.8-0.1-1-0.4
			C134.4,205.9,134.3,205.7,134.3,205.3z M137.4,203.6h6.8c2.2,0,3.9-0.6,5.1-1.8c1.2-1.2,1.8-3.1,1.8-5.5v-14.6
			c0-2.4-0.6-4.3-1.8-5.5c-1.2-1.2-2.9-1.8-5.1-1.8h-6.8V203.6z"/>
		<path class="st8" d="M161.1,205.3v-32.6c0-0.4,0.1-0.7,0.4-0.9c0.3-0.2,0.6-0.3,1-0.3h17.1c0.8,0,1.2,0.5,1.2,1.4
			c0,0.4-0.1,0.8-0.3,1.1c-0.2,0.3-0.5,0.5-0.9,0.5h-15.4v13.2h7.5c0.4,0,0.7,0.1,0.9,0.4c0.2,0.3,0.3,0.6,0.3,1
			c0,0.9-0.4,1.3-1.2,1.3h-7.5v13.3h15.4c0.4,0,0.6,0.1,0.9,0.4c0.2,0.3,0.3,0.6,0.3,1.1c0,1-0.4,1.4-1.2,1.4h-17.1
			c-0.4,0-0.7-0.1-1-0.3C161.3,206,161.1,205.7,161.1,205.3z"/>
		<path class="st8" d="M183.6,201.7c0-0.4,0.2-0.8,0.5-1.2c0.3-0.4,0.6-0.6,1-0.6c0.3,0,0.6,0.2,1,0.6l1.3,1.4
			c0.5,0.5,1.2,1,2.3,1.4c1,0.4,2.2,0.6,3.6,0.6c2.3,0,4-0.6,5.3-1.7c1.2-1.1,1.9-2.8,1.9-4.9c0-1.4-0.3-2.7-0.9-3.7
			c-0.6-1-1.4-1.8-2.3-2.3c-0.9-0.6-1.9-1.1-3.1-1.5l-3.5-1.3c-1.2-0.4-2.2-1-3.1-1.6c-0.9-0.6-1.7-1.5-2.3-2.6
			c-0.6-1.1-0.9-2.5-0.9-4.1c0-1.7,0.3-3.1,0.9-4.3c0.6-1.2,1.5-2.1,2.5-2.7c1.1-0.6,2.1-1.1,3.2-1.3s2.3-0.4,3.5-0.4
			c2,0,3.8,0.3,5.5,0.8c1.7,0.6,2.6,1.3,2.6,2.1c0,0.4-0.1,0.8-0.4,1.2c-0.3,0.4-0.6,0.6-1,0.6c-0.2,0-0.6-0.1-1.1-0.4
			c-0.5-0.3-1.3-0.6-2.3-0.9c-1-0.3-2.1-0.4-3.3-0.4c-2,0-3.7,0.4-5,1.3c-1.3,0.9-2,2.3-2,4.3c0,1.4,0.4,2.5,1.2,3.5
			c0.8,0.9,1.8,1.6,3,2c1.2,0.4,2.5,0.9,3.8,1.5c1.4,0.6,2.7,1.2,3.8,1.8c1.2,0.7,2.2,1.7,3,3.1c0.8,1.4,1.2,3.2,1.2,5.3
			c0,3.3-0.9,5.7-2.7,7.4c-1.8,1.6-4.3,2.5-7.4,2.5c-2.8,0-5.1-0.6-7-1.8C184.6,203.9,183.6,202.8,183.6,201.7z"/>
		<path class="st8" d="M209.2,205.3v-32.7c0-0.8,0.5-1.2,1.6-1.2s1.6,0.4,1.6,1.2v17l13.9-17.7c0.2-0.3,0.6-0.5,1-0.5
			c0.4,0,0.8,0.2,1.2,0.5c0.4,0.4,0.6,0.7,0.6,1.1c0,0.3-0.1,0.5-0.2,0.7l-10.3,12.8l11.8,17.8c0.1,0.3,0.2,0.5,0.2,0.6
			c0,0.4-0.2,0.8-0.6,1.1c-0.4,0.3-0.8,0.5-1.2,0.5c-0.4,0-0.8-0.2-1.2-0.7l-11.1-16.7l-3.9,5v11c0,0.4-0.2,0.7-0.5,0.9
			c-0.3,0.2-0.7,0.3-1.1,0.3c-0.4,0-0.8-0.1-1.1-0.3C209.4,206,209.2,205.7,209.2,205.3z"/>
	</g>
	<g class="st7">
		<path class="st8" d="M231.4,172.9c0-0.4,0.1-0.7,0.3-1c0.2-0.3,0.5-0.4,0.9-0.4h19.2c0.4,0,0.7,0.1,0.9,0.4c0.2,0.3,0.3,0.6,0.3,1
			c0,0.4-0.1,0.8-0.3,1.1s-0.5,0.4-0.9,0.4h-8v30.9c0,0.4-0.2,0.7-0.5,0.9c-0.3,0.2-0.7,0.3-1.1,0.3c-0.4,0-0.8-0.1-1.1-0.3
			c-0.3-0.2-0.5-0.5-0.5-0.9v-30.9h-8.1c-0.4,0-0.6-0.1-0.9-0.4C231.5,173.7,231.4,173.3,231.4,172.9z"/>
	</g>
	<g class="st7">
		<path class="st8" d="M256.2,196.6v-14.9c0-3.5,0.9-6.1,2.7-7.8c1.8-1.6,4.2-2.5,7.3-2.5s5.5,0.8,7.3,2.5c1.8,1.6,2.7,4.2,2.7,7.8
			v14.9c0,3.6-0.9,6.2-2.7,7.8c-1.8,1.6-4.2,2.5-7.3,2.5s-5.5-0.8-7.3-2.5C257.1,202.7,256.2,200.1,256.2,196.6z M259.4,196.6
			c0,4.9,2.3,7.3,6.8,7.3s6.8-2.4,6.8-7.3v-14.9c0-4.9-2.3-7.3-6.8-7.3s-6.8,2.4-6.8,7.3V196.6z"/>
		<path class="st8" d="M283.1,205.3v-32.7c0-0.7,0.4-1.1,1.3-1.2h8.8c3,0,5.4,0.8,7.2,2.4c1.8,1.6,2.7,4.2,2.7,7.7v0.5
			c0,3.5-0.9,6.1-2.7,7.8s-4.2,2.5-7.3,2.5h-6.9v13c0,0.4-0.2,0.7-0.5,0.9c-0.3,0.2-0.7,0.3-1.1,0.3c-0.4,0-0.8-0.1-1.1-0.3
			C283.2,206,283.1,205.7,283.1,205.3z M286.2,189.6h6.9c2.2,0,3.9-0.6,5-1.8c1.2-1.2,1.8-3.1,1.8-5.5v-0.6c0-4.9-2.3-7.3-6.8-7.3
			h-6.9V189.6z"/>
		<path class="st8" d="M317.6,196.6v-14.9c0-3.5,0.9-6.1,2.8-7.7s4.3-2.5,7.3-2.5c3,0,5.4,0.8,7.2,2.3c1.8,1.6,2.7,3.4,2.7,5.7
			c0,0.8-0.1,1.3-0.4,1.5c-0.2,0.3-0.6,0.4-1.2,0.4c-1,0-1.5-0.4-1.6-1.2c0-0.5-0.1-0.9-0.2-1.4c-0.1-0.4-0.3-1-0.6-1.5
			c-0.3-0.6-0.7-1-1.1-1.5s-1.1-0.8-1.9-1c-0.8-0.3-1.8-0.4-2.9-0.4c-4.6,0-6.9,2.4-6.9,7.3v14.9c0,4.9,2.4,7.3,7.1,7.3
			c1.3,0,2.5-0.2,3.4-0.6c0.9-0.4,1.6-0.9,2-1.6c0.4-0.7,0.7-1.3,0.8-1.8c0.1-0.5,0.3-1.1,0.4-1.9c0.1-0.8,0.6-1.2,1.6-1.2
			c0.6,0,1,0.1,1.2,0.4c0.2,0.3,0.4,0.8,0.4,1.6c0,2.3-0.9,4.2-2.7,5.8c-1.8,1.6-4.2,2.4-7.3,2.4c-2.9,0-5.3-0.8-7.2-2.5
			C318.5,202.7,317.6,200.1,317.6,196.6z"/>
		<path class="st8" d="M343.1,205.3v-32.7c0-0.8,0.5-1.2,1.6-1.2c1.1,0,1.6,0.4,1.6,1.2v31h13.7c0.7,0,1.1,0.5,1.1,1.4
			c0,1-0.4,1.5-1.1,1.5h-15.4c-0.4,0-0.7-0.1-1-0.3C343.2,206,343.1,205.7,343.1,205.3z"/>
		<path class="st8" d="M365.3,205.3v-32.7c0-0.8,0.5-1.2,1.6-1.2c1.1,0,1.6,0.4,1.6,1.2v32.7c0,0.4-0.2,0.7-0.5,0.9
			c-0.3,0.2-0.7,0.3-1.1,0.3c-0.4,0-0.8-0.1-1.1-0.3C365.4,206,365.3,205.7,365.3,205.3z"/>
		<path class="st8" d="M375.8,205.3v-32.6c0-0.4,0.1-0.7,0.4-0.9c0.3-0.2,0.6-0.3,1-0.3h17.1c0.8,0,1.2,0.5,1.2,1.4
			c0,0.4-0.1,0.8-0.3,1.1c-0.2,0.3-0.5,0.5-0.9,0.5h-15.4v13.2h7.5c0.4,0,0.7,0.1,0.9,0.4c0.2,0.3,0.3,0.6,0.3,1
			c0,0.9-0.4,1.3-1.2,1.3h-7.5v13.3h15.4c0.4,0,0.6,0.1,0.9,0.4s0.3,0.6,0.3,1.1c0,1-0.4,1.4-1.2,1.4h-17.1c-0.4,0-0.7-0.1-1-0.3
			C375.9,206,375.8,205.7,375.8,205.3z"/>
		<path class="st8" d="M400.1,205.3v-32.6c0-0.8,0.5-1.2,1.6-1.2c0.9,0,1.7,0.7,2.5,2.2l13,25.5v-26.6c0-0.8,0.5-1.2,1.6-1.2
			c1.1,0,1.6,0.4,1.6,1.2v32.7c0,0.4-0.2,0.7-0.5,0.9c-0.3,0.2-0.7,0.3-1.1,0.3c-0.8,0-1.5-0.6-2.1-1.8l-13.3-26v26.5
			c0,0.4-0.2,0.7-0.5,0.9c-0.3,0.2-0.7,0.3-1.1,0.3c-0.4,0-0.8-0.1-1.1-0.3C400.3,206,400.1,205.7,400.1,205.3z"/>
		<path class="st8" d="M424.7,172.9c0-0.4,0.1-0.7,0.3-1c0.2-0.3,0.5-0.4,0.9-0.4h19.2c0.4,0,0.7,0.1,0.9,0.4c0.2,0.3,0.3,0.6,0.3,1
			c0,0.4-0.1,0.8-0.3,1.1c-0.2,0.3-0.5,0.4-0.9,0.4h-8v30.9c0,0.4-0.2,0.7-0.5,0.9s-0.7,0.3-1.1,0.3c-0.4,0-0.8-0.1-1.1-0.3
			c-0.3-0.2-0.5-0.5-0.5-0.9v-30.9h-8.1c-0.4,0-0.6-0.1-0.9-0.4C424.8,173.7,424.7,173.3,424.7,172.9z"/>
	</g>
</g>
</svg>
